<?xml version="1.0" encoding="UTF-8"?><svg id="Layer_1" xmlns="http://www.w3.org/2000/svg" viewBox="0 0 147.21 165.63"><path d="m129.73,74.28c2.34,32.86-29.72,53.85-32.6,55.67-7.83.09-15.66.14-23.49.15-7.83.01-15.66-.02-23.49-.08-2.88-1.83-34.96-22.85-32.6-55.74,1.85-25.8,24.68-55.82,56.09-55.82,31.4,0,54.26,30,56.09,55.82Z" style="fill:#fc3;"/><polyline points="97.13 129.95 97.13 165.07 50.15 165.07 50.15 130.01" style="fill:#028090;"/><rect x="48.74" y="130.75" width="49.8" height="1.31" rx=".65" ry=".65" style="fill:#03737c;"/><rect x="48.74" y="132.71" width="49.8" height="1.31" rx=".65" ry=".65" style="fill:#03737c;"/><rect x="48.74" y="134.67" width="49.8" height="1.31" rx=".65" ry=".65" style="fill:#03737c;"/><rect x="48.74" y="136.63" width="49.8" height="1.31" rx=".65" ry=".65" style="fill:#03737c;"/><rect x="48.74" y="138.59" width="49.8" height="1.31" rx=".65" ry=".65" style="fill:#03737c;"/><rect x="48.74" y="140.52" width="49.8" height="1.31" rx=".65" ry=".65" style="fill:#03737c;"/><rect x="48.74" y="142.46" width="49.8" height="1.31" rx=".65" ry=".65" style="fill:#03737c;"/><rect x="48.74" y="144.64" width="49.8" height="1.31" rx=".65" ry=".65" style="fill:#03737c;"/><rect x="48.74" y="146.83" width="49.8" height="1.31" rx=".65" ry=".65" style="fill:#03737c;"/><rect x="48.74" y="149.02" width="49.8" height="1.31" rx=".65" ry=".65" style="fill:#03737c;"/><rect x="48.74" y="151.2" width="49.8" height="1.31" rx=".65" ry=".65" style="fill:#03737c;"/><rect x="48.74" y="153.39" width="49.8" height="1.31" rx=".65" ry=".65" style="fill:#03737c;"/><rect x="48.74" y="155.58" width="49.8" height="1.31" rx=".65" ry=".65" style="fill:#03737c;"/><rect x="48.74" y="157.76" width="49.8" height="1.31" rx=".65" ry=".65" style="fill:#03737c;"/><rect x="48.74" y="159.95" width="49.8" height="1.31" rx=".65" ry=".65" style="fill:#03737c;"/><rect x="48.74" y="162.14" width="49.8" height="1.31" rx=".65" ry=".65" style="fill:#03737c;"/><rect x="48.74" y="164.32" width="49.8" height="1.31" rx=".65" ry=".65" style="fill:#03737c;"/><path d="m18.97,65.37c2.21-7.12,19.78-15.05,28.19-11.02,10.18,4.89-1.33,23.34,7.44,43.04,7.76,17.43,27.52,27.14,42.16,32.5-15.54.04-31.08.09-46.62.13-6.73-4.62-16.53-12.45-23.61-23.46-3.88-6.03-5.73-11.13-6.15-12.32-2.56-7.24-2.87-13.02-2.94-14.71-.05-1.35-.12-4.87.56-9.36.26-1.7.67-3.87.96-4.8Z" style="fill:#eaa459; stroke:#eaa459; stroke-miterlimit:10; stroke-width:.14px;"/><path d="m104.74,119.58c4.57-9.82,7.93-18.08,10.26-24.14,2.16-5.62,3.54-9.45,4.89-14.69,2.26-8.76,2.97-16.22,3.17-21.47,1.49,3.76,3.21,9.48,3.27,16.52.09,10.54-3.57,18.31-5.96,23.13-2.55,5.14-7.19,12.8-15.63,20.64Z" style="fill:#eaa459; stroke:#eaa459; stroke-miterlimit:10; stroke-width:.14px;"/><path d="m59.59,23.65c-5.36,2.75-24.07,13.11-32.56,34.09-2.84,7.01-8.21,24.26.8,43.3,5.85,12.36,15.23,20.1,20.5,23.86-3.16-6.42-7.14-16.39-8.53-28.95-1.96-17.73,2.27-31.47,5.55-41.75,2.47-7.76,6.71-18.49,14.24-30.55Z" style="fill:#fff; opacity:.85; stroke:#fff; stroke-miterlimit:10; stroke-width:.14px;"/><path d="m109.72,132.45c2.28-4.23,7.15-11.65,16.76-17.54,4.2-2.58,8.3-4.25,11.71-5.35-.81-4.97-1.31-11.41-.5-18.87.83-7.61,2.78-13.99,4.7-18.8-2.6-3.67-6-9.46-7.8-17.05-1.58-6.62-1.4-12.31-.9-16.29-2.56-.6-9-2.41-14.41-7.64-5-4.83-6.44-9.98-6.9-12.22-4.75-.38-11.91-1.45-19.81-4.58-7.21-2.86-12.4-6.4-15.73-9.05-5.84,3.02-13.26,6.29-22.19,9.05-7.29,2.25-14.01,3.67-19.81,4.58-.46,2.24-1.9,7.39-6.9,12.22-5.41,5.23-11.85,7.04-14.41,7.64.49,3.98.68,9.67-.9,16.29-1.81,7.6-5.21,13.39-7.8,17.05,1.91,4.81,3.87,11.19,4.7,18.8.81,7.46.31,13.91-.5,18.87,3.41,1.1,7.5,2.77,11.71,5.35,9.61,5.9,14.49,13.32,16.76,17.54" style="fill:none; stroke:#fc3; stroke-linecap:round; stroke-miterlimit:10; stroke-width:8.52px;"/></svg>