<?xml version="1.0" encoding="utf-8"?>
<!-- Generator: Adobe Illustrator 27.5.0, SVG Export Plug-In . SVG Version: 6.00 Build 0)  -->
<svg version="1.1" id="Layer_1" xmlns="http://www.w3.org/2000/svg" xmlns:xlink="http://www.w3.org/1999/xlink" x="0px" y="0px"
	 viewBox="0 0 200 200" style="enable-background:new 0 0 200 200;" xml:space="preserve">
<style type="text/css">
	.st0{fill:#028090;}
</style>
<g transform="rotate(0 50 50)">
	<path class="st0" d="M98,25h4c1.7,0,3,1.3,3,3v24c0,1.7-1.3,3-3,3h-4c-1.7,0-3-1.3-3-3V28C95,26.3,96.3,25,98,25z	">
<animate  accumulate="none" additive="replace" attributeName="opacity" begin="-0.9333333333333333s" calcMode="linear" dur="1s" fill="remove" keyTimes="0;1" repeatCount="indefinite" restart="always" values="1;0">
			</animate>
	</path>
</g>
<g transform="rotate(24 50 50)">
	<path class="st0" d="M114,0.3l4,0c1.7,0,3,1.3,3,3l0,24c0,1.7-1.3,3-3,3l-4,0c-1.7,0-3-1.3-3-3l0-24C111,1.7,112.4,0.3,114,0.3z	">
<animate  accumulate="none" additive="replace" attributeName="opacity" begin="-0.8666666666666667s" calcMode="linear" dur="1s" fill="remove" keyTimes="0;1" repeatCount="indefinite" restart="always" values="1;0">
			</animate>
	</path>
</g>
<g transform="rotate(48 50 50)">
	<path class="st0" d="M118.6-28.7l4,0c1.7,0,3,1.3,3,3l0,24c0,1.7-1.3,3-3,3l-4,0c-1.7,0-3-1.3-3-3v-24
		C115.6-27.4,117-28.7,118.6-28.7z	">
<animate  accumulate="none" additive="replace" attributeName="opacity" begin="-0.8s" calcMode="linear" dur="1s" fill="remove" keyTimes="0;1" repeatCount="indefinite" restart="always" values="1;0">
			</animate>
	</path>
</g>
<g transform="rotate(72 50 50)">
	<path class="st0" d="M111-57.1l4,0c1.7,0,3,1.3,3,3v24c0,1.7-1.3,3-3,3h-4c-1.7,0-3-1.3-3-3l0-24C108-55.8,109.3-57.1,111-57.1z	">
<animate  accumulate="none" additive="replace" attributeName="opacity" begin="-0.7333333333333333s" calcMode="linear" dur="1s" fill="remove" keyTimes="0;1" repeatCount="indefinite" restart="always" values="1;0">
			</animate>
	</path>
</g>
<g transform="rotate(96 50 50)">
	<path class="st0" d="M92.5-80l4,0c1.7,0,3,1.3,3,3l0,24c0,1.7-1.3,3-3,3l-4,0c-1.7,0-3-1.3-3-3l0-24C89.5-78.6,90.8-80,92.5-80z	">
<animate  accumulate="none" additive="replace" attributeName="opacity" begin="-0.6666666666666666s" calcMode="linear" dur="1s" fill="remove" keyTimes="0;1" repeatCount="indefinite" restart="always" values="1;0">
			</animate>
	</path>
</g>
<g transform="rotate(120 50 50)">
	<path class="st0" d="M66.3-93.3h4c1.7,0,3,1.3,3,3l0,24c0,1.7-1.3,3-3,3l-4,0c-1.7,0-3-1.3-3-3l0-24C63.3-92,64.6-93.3,66.3-93.3z	
		">
<animate  accumulate="none" additive="replace" attributeName="opacity" begin="-0.6s" calcMode="linear" dur="1s" fill="remove" keyTimes="0;1" repeatCount="indefinite" restart="always" values="1;0">
			</animate>
	</path>
</g>
<g transform="rotate(144 50 50)">
	<path class="st0" d="M36.9-94.8l4,0c1.7,0,3,1.3,3,3l0,24c0,1.7-1.3,3-3,3h-4c-1.7,0-3-1.3-3-3l0-24C33.9-93.5,35.3-94.8,36.9-94.8
		z	">
<animate  accumulate="none" additive="replace" attributeName="opacity" begin="-0.5333333333333333s" calcMode="linear" dur="1s" fill="remove" keyTimes="0;1" repeatCount="indefinite" restart="always" values="1;0">
			</animate>
	</path>
</g>
<g transform="rotate(168 50 50)">
	<path class="st0" d="M9.5-84.3l4,0c1.7,0,3,1.3,3,3l0,24c0,1.7-1.3,3-3,3l-4,0c-1.7,0-3-1.3-3-3l0-24C6.5-83,7.8-84.3,9.5-84.3z	">
<animate  accumulate="none" additive="replace" attributeName="opacity" begin="-0.4666666666666667s" calcMode="linear" dur="1s" fill="remove" keyTimes="0;1" repeatCount="indefinite" restart="always" values="1;0">
			</animate>
	</path>
</g>
<g transform="rotate(192 50 50)">
	<path class="st0" d="M-11.3-63.5h4c1.7,0,3,1.3,3,3l0,24c0,1.7-1.3,3-3,3h-4c-1.7,0-3-1.3-3-3l0-24C-14.3-62.2-13-63.5-11.3-63.5z	
		">
<animate  accumulate="none" additive="replace" attributeName="opacity" begin="-0.4s" calcMode="linear" dur="1s" fill="remove" keyTimes="0;1" repeatCount="indefinite" restart="always" values="1;0">
			</animate>
	</path>
</g>
<g transform="rotate(216 50 50)">
	<path class="st0" d="M-21.8-36.1l4,0c1.7,0,3,1.3,3,3l0,24c0,1.7-1.3,3-3,3l-4,0c-1.7,0-3-1.3-3-3l0-24
		C-24.8-34.7-23.5-36.1-21.8-36.1z	">
<animate  accumulate="none" additive="replace" attributeName="opacity" begin="-0.3333333333333333s" calcMode="linear" dur="1s" fill="remove" keyTimes="0;1" repeatCount="indefinite" restart="always" values="1;0">
			</animate>
	</path>
</g>
<g transform="rotate(240 50 50)">
	<path class="st0" d="M-20.3-6.7l4,0c1.7,0,3,1.3,3,3l0,24c0,1.7-1.3,3-3,3l-4,0c-1.7,0-3-1.3-3-3l0-24C-23.3-5.4-22-6.7-20.3-6.7z	
		">
<animate  accumulate="none" additive="replace" attributeName="opacity" begin="-0.26666666666666666s" calcMode="linear" dur="1s" fill="remove" keyTimes="0;1" repeatCount="indefinite" restart="always" values="1;0">
			</animate>
	</path>
</g>
<g transform="rotate(264 50 50)">
	<path class="st0" d="M-7,19.5l4,0c1.7,0,3,1.3,3,3l0,24c0,1.7-1.3,3-3,3h-4c-1.7,0-3-1.3-3-3l0-24C-10,20.8-8.6,19.5-7,19.5z	">
<animate  accumulate="none" additive="replace" attributeName="opacity" begin="-0.2s" calcMode="linear" dur="1s" fill="remove" keyTimes="0;1" repeatCount="indefinite" restart="always" values="1;0">
			</animate>
	</path>
</g>
<g transform="rotate(288 50 50)">
	<path class="st0" d="M15.9,38h4c1.7,0,3,1.3,3,3l0,24c0,1.7-1.3,3-3,3h-4c-1.7,0-3-1.3-3-3l0-24C12.9,39.3,14.2,38,15.9,38z	">
<animate  accumulate="none" additive="replace" attributeName="opacity" begin="-0.13333333333333333s" calcMode="linear" dur="1s" fill="remove" keyTimes="0;1" repeatCount="indefinite" restart="always" values="1;0">
			</animate>
	</path>
</g>
<g transform="rotate(312 50 50)">
	<path class="st0" d="M44.3,45.6h4c1.7,0,3,1.3,3,3l0,24c0,1.7-1.3,3-3,3h-4c-1.7,0-3-1.3-3-3l0-24C41.3,47,42.6,45.6,44.3,45.6z	">
<animate  accumulate="none" additive="replace" attributeName="opacity" begin="-0.06666666666666667s" calcMode="linear" dur="1s" fill="remove" keyTimes="0;1" repeatCount="indefinite" restart="always" values="1;0">
			</animate>
	</path>
</g>
<g transform="rotate(336 50 50)">
	<path class="st0" d="M73.3,41h4c1.7,0,3,1.3,3,3l0,24c0,1.7-1.3,3-3,3h-4c-1.7,0-3-1.3-3-3l0-24C70.3,42.4,71.7,41,73.3,41z	">
<animate  accumulate="none" additive="replace" attributeName="opacity" begin="0s" calcMode="linear" dur="1s" fill="remove" keyTimes="0;1" repeatCount="indefinite" restart="always" values="1;0">
			</animate>
	</path>
</g>
</svg>
